HIERARCHY
ROOT Hips
{
	OFFSET 0.000000 0.000000 0.000000
	CHANNELS 6 Xposition Yposition Zposition Yrotation Xrotation Zrotation
	JOINT Chest
	{
		OFFSET 0.000000 -0.009281 11.569106
		CHANNELS 3 Yrotation Xrotation Zrotation
		JOINT Chest2
		{
			OFFSET -0.000000 0.016865 9.269641
			CHANNELS 3 Yrotation Xrotation Zrotation
			JOINT Chest3
			{
				OFFSET -0.000000 0.000001 8.374491
				CHANNELS 3 Yrotation Xrotation Zrotation
				JOINT Chest4
				{
					OFFSET -0.000000 0.000001 8.374493
					CHANNELS 3 Yrotation Xrotation Zrotation
					JOINT Neck
					{
						OFFSET -0.000000 0.000002 12.152554
						CHANNELS 3 Yrotation Xrotation Zrotation
						JOINT Head
						{
							OFFSET -0.000000 0.040101 7.802319
							CHANNELS 3 Yrotation Xrotation Zrotation
							End Site
							{
								OFFSET -0.000000 0.020947 14.853096
							}
						}
					}
					JOINT RightCollar
					{
						OFFSET 2.894404 0.000001 6.791374
						CHANNELS 3 Yrotation Xrotation Zrotation
						JOINT RightShoulder
						{
							OFFSET 13.574684 0.000001 0.000000
							CHANNELS 3 Yrotation Xrotation Zrotation
							JOINT RightElbow
							{
								OFFSET 23.923903 0.000002 0.000000
								CHANNELS 3 Yrotation Xrotation Zrotation
								JOINT RightWrist
								{
									OFFSET 19.846718 0.012767 0.000000
									CHANNELS 3 Yrotation Xrotation Zrotation
									End Site
									{
										OFFSET 14.973145 0.000001 0.000000
									}
								}
							}
						}
					}
					JOINT LeftCollar
					{
						OFFSET -2.894404 0.000001 6.791374
						CHANNELS 3 Yrotation Xrotation Zrotation
						JOINT LeftShoulder
						{
							OFFSET -13.574684 -0.000001 0.000000
							CHANNELS 3 Yrotation Xrotation Zrotation
							JOINT LeftElbow
							{
								OFFSET -23.923903 -0.000002 0.000000
								CHANNELS 3 Yrotation Xrotation Zrotation
								JOINT LeftWrist
								{
									OFFSET -19.846718 0.012763 0.000000
									CHANNELS 3 Yrotation Xrotation Zrotation
									End Site
									{
										OFFSET -14.973145 -0.000001 0.000000
									}
								}
							}
						}
					}
				}
			}
		}
	}
	JOINT RightHip
	{
		OFFSET 9.469263 0.004643 0.045487
		CHANNELS 3 Yrotation Xrotation Zrotation
		JOINT RightKnee
		{
			OFFSET 0.000000 0.002661 -40.478676
			CHANNELS 3 Yrotation Xrotation Zrotation
			JOINT RightAnkle
			{
				OFFSET 0.000000 0.049106 -35.224068
				CHANNELS 3 Yrotation Xrotation Zrotation
				JOINT RightToe
				{
					OFFSET -0.000001 12.539529 -6.151390
					CHANNELS 3 Yrotation Xrotation Zrotation
					End Site
					{
						OFFSET -0.000001 5.044994 -1.291870
					}
				}
			}
		}
	}
	JOINT LeftHip
	{
		OFFSET -9.469263 0.004641 0.045487
		CHANNELS 3 Yrotation Xrotation Zrotation
		JOINT LeftKnee
		{
			OFFSET 0.000000 0.002661 -40.478676
			CHANNELS 3 Yrotation Xrotation Zrotation
			JOINT LeftAnkle
			{
				OFFSET 0.000000 0.049106 -35.224068
				CHANNELS 3 Yrotation Xrotation Zrotation
				JOINT LeftToe
				{
					OFFSET -0.000001 12.539529 -6.151390
					CHANNELS 3 Yrotation Xrotation Zrotation
					End Site
					{
						OFFSET -0.000001 5.044994 -1.291870
					}
				}
			}
		}
	}
}
MOTION
Frames: 12
Frame Time: 0.016667
9.445741 7.524956 83.130333 -5.761818 -1.405530 -104.255939 -0.416923 -3.090701 1.819832 -0.169145 -1.373097 0.793076 -0.169145 -1.373097 0.793077 -0.125070 -1.030044 0.594398 3.169987 -24.380203 -7.922672 3.720398 -9.102229 -13.418879 9.606840 2.291501 -6.689200 61.923731 46.520640 28.784924 42.070390 36.616955 47.007196 -4.325107 46.372900 9.836604 -8.753687 -5.152959 -4.849266 -51.590403 28.741439 -18.955593 -30.293118 8.741466 -32.812847 -34.389111 26.887101 -0.448102 -1.212270 -5.285880 -2.817409 2.342553 -5.519364 -11.082881 -1.039701 4.363182 1.742876 0.073389 0.027277 -0.013560 -0.957263 -6.780099 0.800990 0.545629 -2.176214 -0.903387 -0.654300 3.208356 -0.065261 -0.007497 -0.015913 0.017202 
9.429454 7.533102 83.128731 -5.773794 -1.410100 -104.263644 -0.425518 -3.119036 1.809046 -0.173325 -1.385222 0.786385 -0.173325 -1.385222 0.786387 -0.128205 -1.039142 0.589369 3.270720 -24.349799 -8.338111 3.796766 -9.052682 -14.139069 9.571831 2.330123 -6.695094 61.876924 46.524824 28.940604 42.131260 36.456527 47.100981 -4.284567 46.315639 9.989426 -8.702612 -5.051311 -4.883273 -51.434330 28.893500 -19.020969 -30.495582 8.962678 -32.864295 -34.018341 27.450582 -0.946094 -1.224254 -5.226153 -2.772207 2.359582 -5.638384 -11.105737 -1.042452 4.400600 1.733386 0.062275 0.030773 -0.013984 -0.955582 -6.787810 0.791634 0.539289 -2.162762 -0.867894 -0.649114 3.188074 -0.092760 -0.005609 -0.017935 0.019273 
9.413751 7.535329 83.127602 -5.773371 -1.413611 -104.276901 -0.427389 -3.146758 1.804780 -0.174284 -1.397591 0.783066 -0.174284 -1.397591 0.783066 -0.128916 -1.048419 0.586870 3.362129 -24.313909 -8.702259 3.868371 -8.992420 -14.769668 9.521757 2.418335 -6.702045 61.776390 46.408427 29.094045 42.208954 36.280640 47.326528 -4.265748 46.298352 10.202184 -8.634597 -4.946846 -4.944212 -51.214811 28.974065 -19.117266 -30.638395 9.278683 -33.035764 -33.618608 27.910376 -1.408374 -1.226161 -5.179936 -2.730985 2.369086 -5.705102 -11.132326 -1.038732 4.414310 1.728035 0.044700 0.032181 -0.014274 -0.951412 -6.786411 0.794950 0.538306 -2.146692 -0.817891 -0.650231 3.167335 -0.134987 -0.004818 -0.018805 0.020574 
9.398004 7.533069 83.127174 -5.759065 -1.417057 -104.296087 -0.428534 -3.176166 1.812535 -0.174620 -1.411165 0.785678 -0.174620 -1.411165 0.785679 -0.129144 -1.058601 0.588826 3.454919 -24.268067 -9.024805 3.951485 -8.912343 -15.325367 9.461654 2.539339 -6.719652 61.681936 46.179848 29.263259 42.275336 36.093899 47.652106 -4.315622 46.208207 10.517818 -8.552223 -4.804102 -5.042473 -50.945862 28.997066 -19.222546 -30.662386 9.665630 -33.299617 -33.334865 28.379318 -1.881642 -1.218524 -5.151867 -2.701845 2.375659 -5.705348 -11.148832 -1.034167 4.397569 1.701245 0.022215 0.030762 -0.014407 -0.944376 -6.771589 0.812282 0.543378 -2.132437 -0.785298 -0.655403 3.147895 -0.164945 -0.005130 -0.018694 0.021329 
9.385859 7.523512 83.127121 -5.732216 -1.420753 -104.318927 -0.427210 -3.198161 1.824746 -0.173979 -1.420657 0.791806 -0.173979 -1.420657 0.791808 -0.128637 -1.065721 0.593420 3.544101 -24.222264 -9.302254 4.038925 -8.830992 -15.801088 9.413983 2.646723 -6.698045 61.586511 45.952850 29.478150 42.242866 35.846472 47.913313 -4.562076 46.012222 10.966631 -8.473459 -4.626333 -5.165265 -50.665319 29.093457 -19.310439 -30.643664 10.064536 -33.598708 -33.082592 28.863164 -2.377203 -1.199083 -5.149932 -2.695342 2.362768 -5.633421 -11.161087 -1.015851 4.350742 1.743647 -0.002834 0.025441 -0.013257 -0.928741 -6.751461 0.832490 0.545846 -2.112578 -0.788411 -0.661930 3.130021 -0.159630 -0.005197 -0.018529 0.021079 
9.380236 7.508155 83.127090 -5.692290 -1.427296 -104.354328 -0.425054 -3.205130 1.840921 -0.172388 -1.422978 0.800912 -0.172388 -1.422978 0.800912 -0.127419 -1.067461 0.600251 3.627356 -24.190664 -9.528175 4.129574 -8.774359 -16.185771 9.385523 2.771825 -6.672408 61.481996 45.704692 29.712385 42.004547 35.471365 47.987284 -5.108127 45.806469 11.504004 -8.404496 -4.427198 -5.286804 -50.440742 29.341898 -19.404320 -30.650044 10.455551 -33.895596 -32.689524 29.367611 -2.902366 -1.155244 -5.169131 -2.707581 2.321164 -5.501450 -11.147954 -0.984515 4.279932 1.781118 -0.030704 0.017437 -0.013409 -0.899934 -6.739139 0.864848 0.538188 -2.066276 -0.818844 -0.667841 3.105927 -0.133035 -0.003555 -0.018669 0.021592 
9.379874 7.486478 83.127151 -5.637481 -1.435159 -104.405445 -0.420400 -3.192983 1.857871 -0.169595 -1.417091 0.810449 -0.169595 -1.417090 0.810451 -0.125311 -1.063045 0.607415 3.696023 -24.175115 -9.691067 4.211053 -8.746050 -16.460887 9.359231 2.896529 -6.647276 61.366333 45.381758 29.927765 41.693831 35.014876 47.966609 -5.958895 45.648193 12.022004 -8.362555 -4.265724 -5.412605 -50.290160 29.780554 -19.537302 -30.715521 10.856649 -34.199754 -32.037228 30.024098 -3.512111 -1.101215 -5.202921 -2.742096 2.269041 -5.315555 -11.119907 -0.949395 4.186938 1.829465 -0.056990 0.007819 -0.013221 -0.862117 -6.729307 0.906599 0.524959 -1.999029 -0.840071 -0.676724 3.078196 -0.111489 -0.000603 -0.019570 0.021738 
9.386597 7.461748 83.127663 -5.576318 -1.440169 -104.476466 -0.419636 -3.169163 1.879586 -0.168455 -1.406083 0.822839 -0.168455 -1.406083 0.822840 -0.124442 -1.054792 0.616710 3.752110 -24.173443 -9.780229 4.289383 -8.741280 -16.606734 9.345649 2.986557 -6.610287 61.209785 44.936805 30.094708 41.450663 34.571030 47.966130 -6.940261 45.524392 12.487697 -8.325063 -4.110407 -5.547923 -50.224860 30.294713 -19.674486 -30.788632 11.355956 -34.522812 -31.304540 30.823080 -4.322860 -1.045399 -5.250930 -2.770269 2.208018 -5.094595 -11.116599 -0.902008 4.083857 1.929140 -0.084372 -0.003433 -0.013725 -0.828886 -6.727972 0.945948 0.515895 -1.915116 -0.844373 -0.690217 3.045289 -0.085658 0.002326 -0.016873 0.020977 
9.397678 7.437935 83.128166 -5.506945 -1.439193 -104.574602 -0.423240 -3.134926 1.904801 -0.169273 -1.391271 0.837641 -0.169273 -1.391271 0.837642 -0.125041 -1.043688 0.627816 3.788365 -24.181148 -9.780948 4.354749 -8.751820 -16.598751 9.349608 3.063491 -6.542926 60.958407 44.359883 30.141574 41.299043 34.137760 47.988096 -7.869705 45.431758 12.948860 -8.297911 -3.974617 -5.683397 -50.238811 30.780531 -19.813622 -30.793013 12.037779 -34.943705 -30.694023 31.669845 -5.258780 -0.995978 -5.295662 -2.762381 2.146620 -4.858786 -11.143950 -0.844376 3.977411 2.041300 -0.112870 -0.016666 -0.014756 -0.807344 -6.725111 0.989572 0.513396 -1.826654 -0.828831 -0.707736 3.013058 -0.057302 0.005834 -0.011628 0.019634 
9.408838 7.415868 83.128082 -5.434536 -1.430455 -104.697607 -0.432807 -3.095645 1.933612 -0.173585 -1.374966 0.854203 -0.173585 -1.374966 0.854202 -0.128261 -1.031470 0.640232 3.800740 -24.193397 -9.688034 4.400675 -8.769030 -16.428704 9.369906 3.116132 -6.465782 60.659859 43.655977 30.075389 41.193417 33.635120 48.011777 -8.786892 45.341118 13.333401 -8.277893 -3.859669 -5.809255 -50.347770 31.241835 -19.971239 -30.778796 12.957814 -35.486528 -30.211084 32.449368 -6.087936 -0.959908 -5.329188 -2.719976 2.089936 -4.629950 -11.169289 -0.779019 3.876208 2.141919 -0.142045 -0.031427 -0.015205 -0.797311 -6.719506 1.039577 0.512223 -1.737348 -0.794562 -0.728518 2.980914 -0.030777 0.011178 -0.005229 0.018503 
9.417447 7.396909 83.127113 -5.365591 -1.417706 -104.850241 -0.443216 -3.055766 1.961579 -0.179007 -1.358617 0.870083 -0.179007 -1.358617 0.870083 -0.132314 -1.019220 0.652134 3.775977 -24.206583 -9.488387 4.406301 -8.787178 -16.076484 9.398085 3.138526 -6.384629 60.333663 42.850114 29.897715 41.036753 32.943652 47.939138 -9.778730 45.255099 13.551356 -8.294309 -3.741137 -5.954359 -50.535340 31.753082 -20.101650 -30.798709 14.069403 -36.142673 -29.650842 33.018149 -6.781474 -0.937833 -5.344836 -2.647138 2.042748 -4.431943 -11.185014 -0.714305 3.787791 2.229223 -0.166850 -0.045232 -0.016582 -0.797884 -6.716009 1.128834 0.512969 -1.650811 -0.759907 -0.747874 2.953036 -0.013077 0.014638 0.000115 0.018349 
9.422212 7.378737 83.124588 -5.297898 -1.404307 -105.028365 -0.455944 -3.021870 1.987377 -0.186174 -1.344502 0.884813 -0.186174 -1.344502 0.884814 -0.137677 -1.008649 0.663169 3.708006 -24.217416 -9.168685 4.363770 -8.800509 -15.519737 9.445856 3.196709 -6.294953 59.895759 41.929674 29.489550 40.762654 31.982262 47.740160 -10.961571 45.107901 13.466515 -8.305900 -3.705674 -6.106981 -50.839355 32.405173 -20.289794 -30.868743 15.225357 -36.815181 -28.953575 33.725029 -7.590602 -0.925023 -5.337807 -2.557597 2.001797 -4.270508 -11.167943 -0.656659 3.712843 2.319681 -0.181998 -0.058103 -0.017597 -0.801303 -6.708382 1.252064 0.512080 -1.575053 -0.717058 -0.766644 2.934882 -0.008531 0.017113 0.002244 0.017987 
